<svg version="1.1" id="Layer_1" xmlns="http://www.w3.org/2000/svg" xmlns:xlink="http://www.w3.org/1999/xlink" x="0px" y="0px"
	 width="100%" viewBox="0 0 92 66" enable-background="new 0 0 92 66" xml:space="preserve">
<path fill="#000000" opacity="1.000000" stroke="none" 
	d="
M27.000000,1.000000 
	C40.354229,1.000000 53.708454,1.000000 67.476730,1.337060 
	C62.608116,7.171548 62.893032,8.193766 70.014099,11.371748 
	C71.423996,12.000955 73.056458,13.340755 73.501335,14.706318 
	C75.122215,19.681652 76.283264,24.806793 77.792847,30.540968 
	C57.289196,30.540968 37.768391,30.540968 17.695063,30.540968 
	C18.176516,27.709581 18.529085,25.299953 19.003447,22.914545 
	C20.081419,17.493807 20.857882,12.073771 27.852177,10.573714 
	C30.724556,9.957680 31.226910,7.148183 29.579897,4.513988 
	C28.811666,3.285301 27.865509,2.167864 27.000000,1.000000 
z"/>
<path fill="#303236" opacity="1.000000" stroke="none" 
	d="
M26.625000,1.000000 
	C27.865509,2.167864 28.811666,3.285301 29.579897,4.513988 
	C31.226910,7.148183 30.724556,9.957680 27.852177,10.573714 
	C20.857882,12.073771 20.081419,17.493807 19.003447,22.914545 
	C18.529085,25.299953 18.176516,27.709581 17.695063,30.540968 
	C37.768391,30.540968 57.289196,30.540968 77.792847,30.540968 
	C76.283264,24.806793 75.122215,19.681652 73.501335,14.706318 
	C73.056458,13.340755 71.423996,12.000955 70.014099,11.371748 
	C62.893032,8.193766 62.608116,7.171548 67.945389,1.337060 
	C68.750000,1.000000 69.500000,1.000000 70.713776,1.338526 
	C80.127022,4.593755 83.026199,11.849663 84.559708,20.167316 
	C85.601646,25.818789 86.430290,31.684378 93.000000,34.000000 
	C93.000000,35.714359 93.000000,37.428715 92.619934,39.639965 
	C91.497528,42.335266 90.241959,44.503021 90.108482,46.737797 
	C89.698296,53.605434 91.100372,60.704262 87.000000,67.000000 
	C75.645775,67.000000 64.291542,67.000000 52.499603,66.624039 
	C50.273884,60.824326 48.485878,55.400566 47.473076,52.328320 
	C46.459194,55.653851 44.729595,61.326923 43.000000,67.000000 
	C31.645771,67.000000 20.291544,67.000000 8.443097,66.630829 
	C6.992850,63.994179 5.547215,61.801876 5.185104,59.443226 
	C4.482090,54.864056 4.316632,50.195385 4.059182,45.556541 
	C3.734347,39.703556 1.039530,33.263256 8.112870,29.124172 
	C8.815249,28.713165 8.726295,26.983730 9.045014,25.877853 
	C11.730364,16.560387 11.658949,5.558934 23.657379,1.899023 
	C23.845493,1.841642 23.889006,1.310207 24.000000,1.000000 
	C24.750000,1.000000 25.500000,1.000000 26.625000,1.000000 
M8.684890,48.769428 
	C8.475300,52.484161 7.957151,56.223366 8.248666,59.898346 
	C8.333473,60.967453 10.732115,61.853020 12.978277,63.035519 
	C20.594011,63.099125 28.228294,62.866062 35.818340,63.340572 
	C40.185184,63.613571 42.939877,61.696941 43.264500,58.031082 
	C43.701973,53.090717 42.926826,48.018944 42.360577,43.038986 
	C42.273140,42.270027 40.563026,41.201149 39.532684,41.114876 
	C36.469959,40.858425 33.371979,41.022961 31.370159,41.022961 
	C29.967957,43.965794 29.035631,45.922485 27.992325,47.231133 
	C27.913727,46.800068 27.835127,46.368999 27.842045,45.126789 
	C28.340401,41.423161 26.623960,39.993855 23.015810,40.149319 
	C19.045662,40.320377 15.065627,40.262051 10.372533,40.434719 
	C8.959032,41.458511 6.556983,42.347916 6.394687,43.541798 
	C6.212207,44.884144 8.050808,46.501244 8.684890,48.769428 
M10.294379,36.729065 
	C12.168497,37.160378 14.035695,37.925011 15.917954,37.964085 
	C23.244040,38.116150 30.575382,38.089100 37.903748,38.020042 
	C40.779400,37.992947 43.023670,38.512085 44.312588,41.554901 
	C45.875774,45.245205 48.399982,45.006721 49.982597,41.769207 
	C51.637409,38.384010 54.154606,37.990826 57.326897,38.013531 
	C66.321075,38.077900 75.317856,38.097614 84.309067,37.913265 
	C85.657921,37.885609 86.982391,36.667995 88.318138,36.000851 
	C87.035583,35.266510 85.753952,33.894062 84.470337,33.892200 
	C59.657257,33.856209 34.843945,33.980610 9.710358,34.066257 
	C9.774195,34.724472 9.838032,35.382690 10.294379,36.729065 
M81.988274,40.192444 
	C73.833603,40.183689 65.678169,40.235691 57.524696,40.132336 
	C54.771606,40.097439 52.513348,40.431000 52.000645,43.692711 
	C51.349258,47.836685 49.899067,52.055073 50.284012,56.099491 
	C50.599129,59.410255 52.470726,63.187790 57.123161,63.205250 
	C65.610519,63.237095 74.098381,63.166882 82.585457,63.224083 
	C85.128075,63.241222 86.059364,62.251911 86.056084,59.654995 
	C86.048553,53.691914 86.390907,47.728474 86.391998,41.765144 
	C86.392090,41.266621 84.890785,40.767822 83.499878,40.167660 
	C83.303909,40.200035 83.107948,40.232407 81.988274,40.192444 
M76.910217,8.595802 
	C74.321686,6.745833 71.879990,4.229988 66.750313,7.313675 
	C80.267731,10.355866 76.389526,23.492723 82.871017,30.618965 
	C82.223412,23.086170 81.859962,15.609787 76.910217,8.595802 
M14.774796,14.440214 
	C13.493670,19.728645 12.212542,25.017078 10.931415,30.305510 
	C11.720273,30.536173 12.509132,30.766834 13.297991,30.997496 
	C14.057611,29.214046 15.030327,27.489120 15.539036,25.636765 
	C17.480917,18.565794 17.773363,10.545687 26.506369,7.600751 
	C26.645380,7.553875 26.611425,6.994083 26.647991,6.672162 
	C22.022417,4.524093 18.114254,6.883938 14.774796,14.440214 
z"/>
<path fill="#000000" opacity="1.000000" stroke="none" 
	d="
M23.531263,1.000000 
	C23.889006,1.310207 23.845493,1.841642 23.657379,1.899023 
	C11.658949,5.558934 11.730364,16.560387 9.045014,25.877853 
	C8.726295,26.983730 8.815249,28.713165 8.112870,29.124172 
	C1.039530,33.263256 3.734347,39.703556 4.059182,45.556541 
	C4.316632,50.195385 4.482090,54.864056 5.185104,59.443226 
	C5.547215,61.801876 6.992850,63.994179 7.974440,66.630829 
	C5.677355,67.000000 3.354710,67.000000 1.016033,67.000000 
	C1.016033,45.111473 1.016033,23.222935 1.016033,1.000000 
	C8.350797,1.000000 15.706662,1.000000 23.531263,1.000000 
z"/>
<path fill="#000000" opacity="1.000000" stroke="none" 
	d="
M93.000000,33.531342 
	C86.430290,31.684378 85.601646,25.818789 84.559708,20.167316 
	C83.026199,11.849663 80.127022,4.593755 71.088776,1.338526 
	C78.274490,1.000000 85.548981,1.000000 93.000000,1.000000 
	C93.000000,11.687038 93.000000,22.374861 93.000000,33.531342 
z"/>
<path fill="#000000" opacity="1.000000" stroke="none" 
	d="
M87.499474,67.000000 
	C91.100372,60.704262 89.698296,53.605434 90.108482,46.737797 
	C90.241959,44.503021 91.497528,42.335266 92.619934,40.068428 
	C93.000000,49.000057 93.000000,58.000114 93.000000,67.000000 
	C91.281105,67.000000 89.640030,67.000000 87.499474,67.000000 
z"/>
<path fill="#000000" opacity="1.000000" stroke="none" 
	d="
M43.449982,67.000000 
	C44.729595,61.326923 46.459194,55.653851 47.473076,52.328320 
	C48.485878,55.400566 50.273884,60.824326 52.030945,66.624039 
	C49.299988,67.000000 46.599972,67.000000 43.449982,67.000000 
z"/>
<path fill="#9298A4" opacity="1.000000" stroke="none" 
	d="
M84.087029,40.269150 
	C84.890785,40.767822 86.392090,41.266621 86.391998,41.765144 
	C86.390907,47.728474 86.048553,53.691914 86.056084,59.654995 
	C86.059364,62.251911 85.128075,63.241222 82.585457,63.224083 
	C74.098381,63.166882 65.610519,63.237095 57.123161,63.205250 
	C52.470726,63.187790 50.599129,59.410255 50.284012,56.099491 
	C49.899067,52.055073 51.349258,47.836685 52.000645,43.692711 
	C52.513348,40.431000 54.771606,40.097439 57.524696,40.132336 
	C65.678169,40.235691 73.833603,40.183689 82.473152,40.376457 
	C83.334366,40.463360 83.710693,40.366253 84.087029,40.269150 
z"/>
<path fill="#9298A4" opacity="1.000000" stroke="none" 
	d="
M28.103306,47.879173 
	C29.035631,45.922485 29.967957,43.965794 31.370159,41.022961 
	C33.371979,41.022961 36.469959,40.858425 39.532684,41.114876 
	C40.563026,41.201149 42.273140,42.270027 42.360577,43.038986 
	C42.926826,48.018944 43.701973,53.090717 43.264500,58.031082 
	C42.939877,61.696941 40.185184,63.613571 35.818340,63.340572 
	C28.228294,62.866062 20.594011,63.099125 12.521575,62.475983 
	C12.040938,57.605030 12.017003,53.293613 12.380837,48.826675 
	C17.880173,48.407158 22.991739,48.143166 28.103306,47.879173 
z"/>
<path fill="#63676F" opacity="1.000000" stroke="none" 
	d="
M10.030678,34.072002 
	C34.843945,33.980610 59.657257,33.856209 84.470337,33.892200 
	C85.753952,33.894062 87.035583,35.266510 88.318138,36.000851 
	C86.982391,36.667995 85.657921,37.885609 84.309067,37.913265 
	C75.317856,38.097614 66.321075,38.077900 57.326897,38.013531 
	C54.154606,37.990826 51.637409,38.384010 49.982597,41.769207 
	C48.399982,45.006721 45.875774,45.245205 44.312588,41.554901 
	C43.023670,38.512085 40.779400,37.992947 37.903748,38.020042 
	C30.575382,38.089100 23.244040,38.116150 15.917954,37.964085 
	C14.035695,37.925011 12.168497,37.160378 10.135281,36.057999 
	C9.994347,34.948620 10.012512,34.510311 10.030678,34.072002 
z"/>
<path fill="#46494E" opacity="1.000000" stroke="none" 
	d="
M77.168564,8.860252 
	C81.859962,15.609787 82.223412,23.086170 82.871017,30.618965 
	C76.389526,23.492723 80.267731,10.355866 66.750313,7.313675 
	C71.879990,4.229988 74.321686,6.745833 77.168564,8.860252 
z"/>
<path fill="#46494E" opacity="1.000000" stroke="none" 
	d="
M14.893398,14.069239 
	C18.114254,6.883938 22.022417,4.524093 26.653091,6.672906 
	C26.611425,6.994083 26.645380,7.553875 26.506369,7.600751 
	C17.773363,10.545687 17.480917,18.565794 15.539036,25.636765 
	C15.030327,27.489120 14.057611,29.214046 13.297991,30.997496 
	C12.509132,30.766834 11.720273,30.536173 10.931415,30.305510 
	C12.212542,25.017078 13.493670,19.728645 14.893398,14.069239 
z"/>
<path fill="#6E727B" opacity="1.000000" stroke="none" 
	d="
M11.089899,40.303661 
	C15.065627,40.262051 19.045662,40.320377 23.015810,40.149319 
	C26.623960,39.993855 28.340401,41.423161 27.348682,45.542664 
	C23.692694,45.978153 20.500216,45.730976 17.374531,46.080738 
	C12.833554,46.588871 10.913601,44.700932 11.089899,40.303661 
z"/>
<path fill="#62666E" opacity="1.000000" stroke="none" 
	d="
M10.731216,40.369190 
	C10.913601,44.700932 12.833554,46.588871 17.374531,46.080738 
	C20.500216,45.730976 23.692694,45.978153 27.305923,45.948235 
	C27.835127,46.368999 27.913727,46.800068 28.047815,47.555153 
	C22.991739,48.143166 17.880173,48.407158 12.103004,48.676605 
	C10.628334,48.454315 9.819265,48.226566 9.010196,47.998817 
	C8.050808,46.501244 6.212207,44.884144 6.394687,43.541798 
	C6.556983,42.347916 8.959032,41.458511 10.731216,40.369190 
z"/>
<path fill="#787D86" opacity="1.000000" stroke="none" 
	d="
M8.847543,48.384125 
	C9.819265,48.226566 10.628334,48.454315 11.715236,48.832134 
	C12.017003,53.293613 12.040938,57.605030 12.067492,62.369583 
	C10.732115,61.853020 8.333473,60.967453 8.248666,59.898346 
	C7.957151,56.223366 8.475300,52.484161 8.847543,48.384125 
z"/>
<path fill="#42454A" opacity="1.000000" stroke="none" 
	d="
M9.870518,34.069130 
	C10.012512,34.510311 9.994347,34.948620 9.939025,35.713917 
	C9.838032,35.382690 9.774195,34.724472 9.870518,34.069130 
z"/>
<path fill="#797E88" opacity="1.000000" stroke="none" 
	d="
M83.793457,40.218403 
	C83.710693,40.366253 83.334366,40.463360 82.935013,40.412624 
	C83.107948,40.232407 83.303909,40.200035 83.793457,40.218403 
z"/>
</svg>